<svg width="268" height="51" viewBox="0 0 268 51" fill="none" xmlns="http://www.w3.org/2000/svg">
<g clip-path="url(#clip0_209_5)">
<path d="M5.39193 0C6.39019 0 7.24957 0.799805 7.44054 1.90527L7.57075 3.125H44.0898C45.852 3.125 47.2582 5.10254 46.7635 7.0957L42.076 25.8496C41.7374 27.1973 40.6437 28.125 39.4023 28.125H11.8763L12.6749 32.8125H39.4197C40.5742 32.8125 41.503 33.8574 41.503 35.1562C41.503 36.4551 40.5742 37.5 39.4197 37.5H10.8694C9.94922 37.5 9.08984 36.6992 8.89887 35.5957L3.66797 4.6875H-0.858073C-2.00825 4.6875 -2.94141 3.6377 -2.94141 2.34375C-2.94141 1.0498 -2.00825 0 -0.858073 0H5.39193ZM20.6697 17.5781H24.4891V21.875C24.4891 22.9492 25.1923 23.8281 26.2253 23.8281C27.1801 23.8281 27.9614 22.9492 27.9614 21.875V17.5781H31.7808C32.7357 17.5781 33.5169 16.6992 33.5169 15.625C33.5169 14.4629 32.7357 13.6719 31.7808 13.6719H27.9614V9.375C27.9614 8.2959 27.1801 7.42188 26.2253 7.42188C25.1923 7.42188 24.4891 8.2959 24.4891 9.375V13.6719H20.6697C19.6367 13.6719 18.9336 14.4629 18.9336 15.625C18.9336 16.6992 19.6367 17.5781 20.6697 17.5781ZM8.1697 45.3125C8.1697 42.7246 10.036 40.625 12.3364 40.625C14.6367 40.625 16.503 42.7246 16.503 45.3125C16.503 47.9004 14.6367 50 12.3364 50C10.036 50 8.1697 47.9004 8.1697 45.3125ZM41.503 45.3125C41.503 47.9004 39.6367 50 37.3364 50C35.036 50 33.1697 47.9004 33.1697 45.3125C33.1697 42.7246 35.036 40.625 37.3364 40.625C39.6367 40.625 41.503 42.7246 41.503 45.3125Z" fill="#5352ED"/>
</g>
<path d="M67.59 37.39H55.89L53.37 43H51.06L60.66 22H62.85L72.45 43H70.11L67.59 37.39ZM66.78 35.59L61.74 24.31L56.7 35.59H66.78ZM89.7274 20.74V43H87.6874V39.88C87.0474 40.94 86.1974 41.75 85.1374 42.31C84.0974 42.87 82.9174 43.15 81.5974 43.15C80.1174 43.15 78.7774 42.81 77.5774 42.13C76.3774 41.45 75.4374 40.5 74.7574 39.28C74.0774 38.06 73.7374 36.67 73.7374 35.11C73.7374 33.55 74.0774 32.16 74.7574 30.94C75.4374 29.72 76.3774 28.78 77.5774 28.12C78.7774 27.44 80.1174 27.1 81.5974 27.1C82.8774 27.1 84.0274 27.37 85.0474 27.91C86.0874 28.43 86.9374 29.2 87.5974 30.22V20.74H89.7274ZM81.7774 41.26C82.8774 41.26 83.8674 41.01 84.7474 40.51C85.6474 39.99 86.3474 39.26 86.8474 38.32C87.3674 37.38 87.6274 36.31 87.6274 35.11C87.6274 33.91 87.3674 32.84 86.8474 31.9C86.3474 30.96 85.6474 30.24 84.7474 29.74C83.8674 29.22 82.8774 28.96 81.7774 28.96C80.6574 28.96 79.6474 29.22 78.7474 29.74C77.8674 30.24 77.1674 30.96 76.6474 31.9C76.1474 32.84 75.8974 33.91 75.8974 35.11C75.8974 36.31 76.1474 37.38 76.6474 38.32C77.1674 39.26 77.8674 39.99 78.7474 40.51C79.6474 41.01 80.6574 41.26 81.7774 41.26ZM101.179 27.1C103.239 27.1 104.819 27.62 105.919 28.66C107.019 29.68 107.569 31.2 107.569 33.22V43H105.529V40.54C105.049 41.36 104.339 42 103.399 42.46C102.479 42.92 101.379 43.15 100.099 43.15C98.3395 43.15 96.9395 42.73 95.8995 41.89C94.8595 41.05 94.3395 39.94 94.3395 38.56C94.3395 37.22 94.8195 36.14 95.7795 35.32C96.7595 34.5 98.3095 34.09 100.429 34.09H105.439V33.13C105.439 31.77 105.059 30.74 104.299 30.04C103.539 29.32 102.429 28.96 100.969 28.96C99.9695 28.96 99.0095 29.13 98.0895 29.47C97.1695 29.79 96.3795 30.24 95.7195 30.82L94.7595 29.23C95.5595 28.55 96.5195 28.03 97.6395 27.67C98.7595 27.29 99.9395 27.1 101.179 27.1ZM100.429 41.47C101.629 41.47 102.659 41.2 103.519 40.66C104.379 40.1 105.019 39.3 105.439 38.26V35.68H100.489C97.7895 35.68 96.4395 36.62 96.4395 38.5C96.4395 39.42 96.7895 40.15 97.4895 40.69C98.1895 41.21 99.1695 41.47 100.429 41.47ZM127.575 27.22V43H125.535V40.12C124.975 41.08 124.205 41.83 123.225 42.37C122.245 42.89 121.125 43.15 119.865 43.15C117.805 43.15 116.175 42.58 114.975 41.44C113.795 40.28 113.205 38.59 113.205 36.37V27.22H115.335V36.16C115.335 37.82 115.745 39.08 116.565 39.94C117.385 40.8 118.555 41.23 120.075 41.23C121.735 41.23 123.045 40.73 124.005 39.73C124.965 38.71 125.445 37.3 125.445 35.5V27.22H127.575ZM148.15 27.22V41.08C148.15 43.76 147.49 45.74 146.17 47.02C144.87 48.32 142.9 48.97 140.26 48.97C138.8 48.97 137.41 48.75 136.09 48.31C134.79 47.89 133.73 47.3 132.91 46.54L133.99 44.92C134.75 45.6 135.67 46.13 136.75 46.51C137.85 46.89 139 47.08 140.2 47.08C142.2 47.08 143.67 46.61 144.61 45.67C145.55 44.75 146.02 43.31 146.02 41.35V39.34C145.36 40.34 144.49 41.1 143.41 41.62C142.35 42.14 141.17 42.4 139.87 42.4C138.39 42.4 137.04 42.08 135.82 41.44C134.62 40.78 133.67 39.87 132.97 38.71C132.29 37.53 131.95 36.2 131.95 34.72C131.95 33.24 132.29 31.92 132.97 30.76C133.67 29.6 134.62 28.7 135.82 28.06C137.02 27.42 138.37 27.1 139.87 27.1C141.21 27.1 142.42 27.37 143.5 27.91C144.58 28.45 145.45 29.23 146.11 30.25V27.22H148.15ZM140.08 40.51C141.22 40.51 142.25 40.27 143.17 39.79C144.09 39.29 144.8 38.6 145.3 37.72C145.82 36.84 146.08 35.84 146.08 34.72C146.08 33.6 145.82 32.61 145.3 31.75C144.8 30.87 144.09 30.19 143.17 29.71C142.27 29.21 141.24 28.96 140.08 28.96C138.94 28.96 137.91 29.2 136.99 29.68C136.09 30.16 135.38 30.84 134.86 31.72C134.36 32.6 134.11 33.6 134.11 34.72C134.11 35.84 134.36 36.84 134.86 37.72C135.38 38.6 136.09 39.29 136.99 39.79C137.91 40.27 138.94 40.51 140.08 40.51ZM159.627 27.1C161.687 27.1 163.267 27.62 164.367 28.66C165.467 29.68 166.017 31.2 166.017 33.22V43H163.977V40.54C163.497 41.36 162.787 42 161.847 42.46C160.927 42.92 159.827 43.15 158.547 43.15C156.787 43.15 155.387 42.73 154.347 41.89C153.307 41.05 152.787 39.94 152.787 38.56C152.787 37.22 153.267 36.14 154.227 35.32C155.207 34.5 156.757 34.09 158.877 34.09H163.887V33.13C163.887 31.77 163.507 30.74 162.747 30.04C161.987 29.32 160.877 28.96 159.417 28.96C158.417 28.96 157.457 29.13 156.537 29.47C155.617 29.79 154.827 30.24 154.167 30.82L153.207 29.23C154.007 28.55 154.967 28.03 156.087 27.67C157.207 27.29 158.387 27.1 159.627 27.1ZM158.877 41.47C160.077 41.47 161.107 41.2 161.967 40.66C162.827 40.1 163.467 39.3 163.887 38.26V35.68H158.937C156.237 35.68 154.887 36.62 154.887 38.5C154.887 39.42 155.237 40.15 155.937 40.69C156.637 41.21 157.617 41.47 158.877 41.47ZM185.174 27.1C187.234 27.1 188.814 27.62 189.914 28.66C191.014 29.68 191.564 31.2 191.564 33.22V43H189.524V40.54C189.044 41.36 188.334 42 187.394 42.46C186.474 42.92 185.374 43.15 184.094 43.15C182.334 43.15 180.934 42.73 179.894 41.89C178.854 41.05 178.334 39.94 178.334 38.56C178.334 37.22 178.814 36.14 179.774 35.32C180.754 34.5 182.304 34.09 184.424 34.09H189.434V33.13C189.434 31.77 189.054 30.74 188.294 30.04C187.534 29.32 186.424 28.96 184.964 28.96C183.964 28.96 183.004 29.13 182.084 29.47C181.164 29.79 180.374 30.24 179.714 30.82L178.754 29.23C179.554 28.55 180.514 28.03 181.634 27.67C182.754 27.29 183.934 27.1 185.174 27.1ZM184.424 41.47C185.624 41.47 186.654 41.2 187.514 40.66C188.374 40.1 189.014 39.3 189.434 38.26V35.68H184.484C181.784 35.68 180.434 36.62 180.434 38.5C180.434 39.42 180.784 40.15 181.484 40.69C182.184 41.21 183.164 41.47 184.424 41.47ZM205.389 27.1C207.369 27.1 208.939 27.68 210.099 28.84C211.279 29.98 211.869 31.65 211.869 33.85V43H209.739V34.06C209.739 32.42 209.329 31.17 208.509 30.31C207.689 29.45 206.519 29.02 204.999 29.02C203.299 29.02 201.949 29.53 200.949 30.55C199.969 31.55 199.479 32.94 199.479 34.72V43H197.349V27.22H199.389V30.13C199.969 29.17 200.769 28.43 201.789 27.91C202.829 27.37 204.029 27.1 205.389 27.1ZM231.872 27.22V43H229.832V40.12C229.272 41.08 228.502 41.83 227.522 42.37C226.542 42.89 225.422 43.15 224.162 43.15C222.102 43.15 220.472 42.58 219.272 41.44C218.092 40.28 217.502 38.59 217.502 36.37V27.22H219.632V36.16C219.632 37.82 220.042 39.08 220.862 39.94C221.682 40.8 222.852 41.23 224.372 41.23C226.032 41.23 227.342 40.73 228.302 39.73C229.262 38.71 229.742 37.3 229.742 35.5V27.22H231.872ZM245.877 27.1C247.857 27.1 249.427 27.68 250.587 28.84C251.767 29.98 252.357 31.65 252.357 33.85V43H250.227V34.06C250.227 32.42 249.817 31.17 248.997 30.31C248.177 29.45 247.007 29.02 245.487 29.02C243.787 29.02 242.437 29.53 241.437 30.55C240.457 31.55 239.967 32.94 239.967 34.72V43H237.837V27.22H239.877V30.13C240.457 29.17 241.257 28.43 242.277 27.91C243.317 27.37 244.517 27.1 245.877 27.1ZM266.45 42.04C266.05 42.4 265.55 42.68 264.95 42.88C264.37 43.06 263.76 43.15 263.12 43.15C261.64 43.15 260.5 42.75 259.7 41.95C258.9 41.15 258.5 40.02 258.5 38.56V29.02H255.68V27.22H258.5V23.77H260.63V27.22H265.43V29.02H260.63V38.44C260.63 39.38 260.86 40.1 261.32 40.6C261.8 41.08 262.48 41.32 263.36 41.32C263.8 41.32 264.22 41.25 264.62 41.11C265.04 40.97 265.4 40.77 265.7 40.51L266.45 42.04Z" fill="#70A1FF"/>
<defs>
<clipPath id="clip0_209_5">
<rect width="50" height="50" fill="white"/>
</clipPath>
</defs>
</svg>
