<svg width="70" height="70" viewBox="0 0 70 70" fill="none" xmlns="http://www.w3.org/2000/svg">
<rect width="1512" height="1072" transform="translate(-498 -323)" fill="#A3B7DE"/>
<g filter="url(#filter0_i_21_941)">
<rect x="-468" y="-293" width="1451" height="431" rx="30" fill="#DFE4EA"/>
</g>
<g filter="url(#filter1_i_21_941)">
<rect x="-466" y="-293" width="1451" height="441" rx="30" fill="#DFE4EA"/>
</g>
<path d="M69.9786 34.9316C69.9786 37.3926 68.1556 39.3203 66.0896 39.3203H62.2005L62.2856 61.209C62.2856 61.5918 62.2613 61.9473 62.2248 62.3164V64.5312C62.2248 67.5527 60.0494 70 57.3635 70H55.419C55.2853 70 55.1516 69.877 55.0179 69.9863C54.8478 69.877 54.6776 70 54.5075 70H47.6409C44.955 70 42.7796 67.5527 42.7796 64.5312V52.5C42.7796 50.0801 41.0416 48.125 38.8905 48.125H31.1124C28.9613 48.125 27.2234 50.0801 27.2234 52.5V64.5312C27.2234 67.5527 25.0479 70 22.362 70H15.5684C15.3861 70 15.2038 69.9863 15.0215 69.9727C14.8756 69.9863 14.7298 70 14.5839 70H12.6394C9.95475 70 7.7781 67.5527 7.7781 64.5312V49.2188C7.7781 49.0957 7.78175 48.959 7.78904 48.8359V39.3203H3.89513C1.70389 39.3203 0 37.3926 0 34.9316C0 33.7012 0.365085 32.6074 1.21654 31.6504L32.3763 1.09594C33.2271 0.136992 34.1993 0 35.0501 0C35.9008 0 36.8731 0.273984 37.6144 0.958945L68.6417 31.6504C69.614 32.6074 70.1123 33.7012 69.9786 34.9316Z" fill="#70A1FF"/>
<defs>
<filter id="filter0_i_21_941" x="-468" y="-293" width="1451" height="431" filterUnits="userSpaceOnUse" color-interpolation-filters="sRGB">
<feFlood flood-opacity="0" result="BackgroundImageFix"/>
<feBlend mode="normal" in="SourceGraphic" in2="BackgroundImageFix" result="shape"/>
<feColorMatrix in="SourceAlpha" type="matrix" values="0 0 0 0 0 0 0 0 0 0 0 0 0 0 0 0 0 0 127 0" result="hardAlpha"/>
<feMorphology radius="6" operator="erode" in="SourceAlpha" result="effect1_innerShadow_21_941"/>
<feOffset/>
<feGaussianBlur stdDeviation="4"/>
<feComposite in2="hardAlpha" operator="arithmetic" k2="-1" k3="1"/>
<feColorMatrix type="matrix" values="0 0 0 0 0.247059 0 0 0 0 0.239216 0 0 0 0 0.337255 0 0 0 0.28 0"/>
<feBlend mode="normal" in2="shape" result="effect1_innerShadow_21_941"/>
</filter>
<filter id="filter1_i_21_941" x="-466" y="-293" width="1451" height="441" filterUnits="userSpaceOnUse" color-interpolation-filters="sRGB">
<feFlood flood-opacity="0" result="BackgroundImageFix"/>
<feBlend mode="normal" in="SourceGraphic" in2="BackgroundImageFix" result="shape"/>
<feColorMatrix in="SourceAlpha" type="matrix" values="0 0 0 0 0 0 0 0 0 0 0 0 0 0 0 0 0 0 127 0" result="hardAlpha"/>
<feMorphology radius="6" operator="erode" in="SourceAlpha" result="effect1_innerShadow_21_941"/>
<feOffset/>
<feGaussianBlur stdDeviation="4"/>
<feComposite in2="hardAlpha" operator="arithmetic" k2="-1" k3="1"/>
<feColorMatrix type="matrix" values="0 0 0 0 0.247059 0 0 0 0 0.239216 0 0 0 0 0.337255 0 0 0 0.28 0"/>
<feBlend mode="normal" in2="shape" result="effect1_innerShadow_21_941"/>
</filter>
</defs>
</svg>
