<svg width="158" height="51" viewBox="0 0 158 51" fill="none" xmlns="http://www.w3.org/2000/svg">
<path d="M60.64 20.92V29.17H71.5V31.09H60.64V40H58.42V19H72.82V20.92H60.64ZM81.8298 24.1C83.8898 24.1 85.4698 24.62 86.5698 25.66C87.6698 26.68 88.2198 28.2 88.2198 30.22V40H86.1798V37.54C85.6998 38.36 84.9898 39 84.0498 39.46C83.1298 39.92 82.0298 40.15 80.7498 40.15C78.9898 40.15 77.5898 39.73 76.5498 38.89C75.5098 38.05 74.9898 36.94 74.9898 35.56C74.9898 34.22 75.4698 33.14 76.4298 32.32C77.4098 31.5 78.9598 31.09 81.0798 31.09H86.0898V30.13C86.0898 28.77 85.7098 27.74 84.9498 27.04C84.1898 26.32 83.0798 25.96 81.6198 25.96C80.6198 25.96 79.6598 26.13 78.7398 26.47C77.8198 26.79 77.0298 27.24 76.3698 27.82L75.4098 26.23C76.2098 25.55 77.1698 25.03 78.2898 24.67C79.4098 24.29 80.5898 24.1 81.8298 24.1ZM81.0798 38.47C82.2798 38.47 83.3098 38.2 84.1698 37.66C85.0298 37.1 85.6698 36.3 86.0898 35.26V32.68H81.1398C78.4398 32.68 77.0898 33.62 77.0898 35.5C77.0898 36.42 77.4398 37.15 78.1398 37.69C78.8398 38.21 79.8198 38.47 81.0798 38.47ZM106.972 24.22L99.9522 40H97.7622L90.7722 24.22H92.9922L98.9022 37.66L104.872 24.22H106.972ZM115.983 40.15C114.463 40.15 113.093 39.81 111.873 39.13C110.653 38.43 109.693 37.47 108.993 36.25C108.293 35.03 107.943 33.65 107.943 32.11C107.943 30.57 108.293 29.19 108.993 27.97C109.693 26.75 110.653 25.8 111.873 25.12C113.093 24.44 114.463 24.1 115.983 24.1C117.503 24.1 118.873 24.44 120.093 25.12C121.313 25.8 122.263 26.75 122.943 27.97C123.643 29.19 123.993 30.57 123.993 32.11C123.993 33.65 123.643 35.03 122.943 36.25C122.263 37.47 121.313 38.43 120.093 39.13C118.873 39.81 117.503 40.15 115.983 40.15ZM115.983 38.26C117.103 38.26 118.103 38.01 118.983 37.51C119.883 36.99 120.583 36.26 121.083 35.32C121.583 34.38 121.833 33.31 121.833 32.11C121.833 30.91 121.583 29.84 121.083 28.9C120.583 27.96 119.883 27.24 118.983 26.74C118.103 26.22 117.103 25.96 115.983 25.96C114.863 25.96 113.853 26.22 112.953 26.74C112.073 27.24 111.373 27.96 110.853 28.9C110.353 29.84 110.103 30.91 110.103 32.11C110.103 33.31 110.353 34.38 110.853 35.32C111.373 36.26 112.073 36.99 112.953 37.51C113.853 38.01 114.863 38.26 115.983 38.26ZM130.381 27.31C130.881 26.25 131.621 25.45 132.601 24.91C133.601 24.37 134.831 24.1 136.291 24.1V26.17L135.781 26.14C134.121 26.14 132.821 26.65 131.881 27.67C130.941 28.69 130.471 30.12 130.471 31.96V40H128.341V24.22H130.381V27.31ZM140.148 24.22H142.278V40H140.148V24.22ZM141.228 20.77C140.788 20.77 140.418 20.62 140.118 20.32C139.818 20.02 139.668 19.66 139.668 19.24C139.668 18.84 139.818 18.49 140.118 18.19C140.418 17.89 140.788 17.74 141.228 17.74C141.668 17.74 142.038 17.89 142.338 18.19C142.638 18.47 142.788 18.81 142.788 19.21C142.788 19.65 142.638 20.02 142.338 20.32C142.038 20.62 141.668 20.77 141.228 20.77ZM156.514 39.04C156.114 39.4 155.614 39.68 155.014 39.88C154.434 40.06 153.824 40.15 153.184 40.15C151.704 40.15 150.564 39.75 149.764 38.95C148.964 38.15 148.564 37.02 148.564 35.56V26.02H145.744V24.22H148.564V20.77H150.694V24.22H155.494V26.02H150.694V35.44C150.694 36.38 150.924 37.1 151.384 37.6C151.864 38.08 152.544 38.32 153.424 38.32C153.864 38.32 154.284 38.25 154.684 38.11C155.104 37.97 155.464 37.77 155.764 37.51L156.514 39.04Z" fill="#70A1FF"/>
<path d="M47.1172 9.40234C41.7461 4.8125 33.8359 5.69141 28.8555 10.7695L27 12.7227L25.0469 10.7695C20.1641 5.69141 12.1562 4.8125 6.78516 9.40234C0.632812 14.6758 0.339844 24.0508 5.80859 29.7148L24.7539 49.2461C25.9258 50.5156 27.9766 50.5156 29.1484 49.2461L48.0938 29.7148C53.5625 24.0508 53.2695 14.6758 47.1172 9.40234Z" fill="#5352ED"/>
</svg>
