<svg width="1448" height="923" viewBox="0 0 1448 923" fill="none" xmlns="http://www.w3.org/2000/svg">
<path d="M30 0.973549H1418C1434.29 0.973549 1447.5 14.1811 1447.5 30.4736V788.973H70C31.6162 788.973 0.500031 757.857 0.500031 719.473V30.4735C0.500031 14.1811 13.7076 0.973549 30 0.973549Z" fill="#70A1FF" stroke="#70A1FF"/>
<mask id="path-2-inside-1_131_2" fill="white">
<path d="M716.003 922.474C580.218 922.474 628 788.474 465.193 788.474C324.367 788.474 1162.51 763.409 1391.39 756.641C1415.61 755.925 1427.72 755.566 1436.17 761.995C1438.08 763.451 1439.81 765.132 1441.32 767C1448 775.252 1448 787.542 1448 812.12V842.474V866.974C1448 890.909 1448 902.877 1441.56 911.047C1440.1 912.899 1438.43 914.573 1436.57 916.033C1428.4 922.474 1416.45 922.474 1392.53 922.474H716.003Z"/>
</mask>
<path d="M716.003 922.474C580.218 922.474 628 788.474 465.193 788.474C324.367 788.474 1162.51 763.409 1391.39 756.641C1415.61 755.925 1427.72 755.566 1436.17 761.995C1438.08 763.451 1439.81 765.132 1441.32 767C1448 775.252 1448 787.542 1448 812.12V842.474V866.974C1448 890.909 1448 902.877 1441.56 911.047C1440.1 912.899 1438.43 914.573 1436.57 916.033C1428.4 922.474 1416.45 922.474 1392.53 922.474H716.003Z" stroke="#70A1FF" stroke-width="194" mask="url(#path-2-inside-1_131_2)"/>
</svg>
