<svg width="70" height="70" viewBox="0 0 70 70" fill="none" xmlns="http://www.w3.org/2000/svg">
<rect width="1512" height="1072" transform="translate(-621 -323)" fill="#A3B7DE"/>
<g filter="url(#filter0_i_21_941)">
<rect x="-591" y="-293" width="1451" height="431" rx="30" fill="#DFE4EA"/>
</g>
<g filter="url(#filter1_i_21_941)">
<rect x="-589" y="-293" width="1451" height="441" rx="30" fill="#DFE4EA"/>
</g>
<path d="M43.75 49C43.75 50.2897 42.7716 51.3333 41.5625 51.3333H28.4375C27.2344 51.3333 26.25 50.2833 26.25 49V42H0V63C0 66.7333 3.06387 70 6.5625 70H63.4375C66.9361 70 70 66.7319 70 63V42H43.75V49ZM63.4375 14H52.5V7C52.5 3.26812 49.4375 0 45.9375 0H24.0625C20.5625 0 17.5 3.26812 17.5 7V14H6.5625C3.06387 14 0 17.2667 0 21V37.3333H70V21C70 17.2667 66.9375 14 63.4375 14ZM45.9375 14H24.0625V7H45.9375V14Z" fill="#70A1FF"/>
<defs>
<filter id="filter0_i_21_941" x="-591" y="-293" width="1451" height="431" filterUnits="userSpaceOnUse" color-interpolation-filters="sRGB">
<feFlood flood-opacity="0" result="BackgroundImageFix"/>
<feBlend mode="normal" in="SourceGraphic" in2="BackgroundImageFix" result="shape"/>
<feColorMatrix in="SourceAlpha" type="matrix" values="0 0 0 0 0 0 0 0 0 0 0 0 0 0 0 0 0 0 127 0" result="hardAlpha"/>
<feMorphology radius="6" operator="erode" in="SourceAlpha" result="effect1_innerShadow_21_941"/>
<feOffset/>
<feGaussianBlur stdDeviation="4"/>
<feComposite in2="hardAlpha" operator="arithmetic" k2="-1" k3="1"/>
<feColorMatrix type="matrix" values="0 0 0 0 0.247059 0 0 0 0 0.239216 0 0 0 0 0.337255 0 0 0 0.28 0"/>
<feBlend mode="normal" in2="shape" result="effect1_innerShadow_21_941"/>
</filter>
<filter id="filter1_i_21_941" x="-589" y="-293" width="1451" height="441" filterUnits="userSpaceOnUse" color-interpolation-filters="sRGB">
<feFlood flood-opacity="0" result="BackgroundImageFix"/>
<feBlend mode="normal" in="SourceGraphic" in2="BackgroundImageFix" result="shape"/>
<feColorMatrix in="SourceAlpha" type="matrix" values="0 0 0 0 0 0 0 0 0 0 0 0 0 0 0 0 0 0 127 0" result="hardAlpha"/>
<feMorphology radius="6" operator="erode" in="SourceAlpha" result="effect1_innerShadow_21_941"/>
<feOffset/>
<feGaussianBlur stdDeviation="4"/>
<feComposite in2="hardAlpha" operator="arithmetic" k2="-1" k3="1"/>
<feColorMatrix type="matrix" values="0 0 0 0 0.247059 0 0 0 0 0.239216 0 0 0 0 0.337255 0 0 0 0.28 0"/>
<feBlend mode="normal" in2="shape" result="effect1_innerShadow_21_941"/>
</filter>
</defs>
</svg>
