<svg width="223" height="71" viewBox="0 0 223 71" fill="none" xmlns="http://www.w3.org/2000/svg">
<path d="M17.5 15.3125C17.5 6.85508 25.3281 0 35 0C44.6719 0 52.5 6.85508 52.5 15.3125V21.875H62.5C66.6406 21.875 70 24.8145 70 28.4375V56.875C70 64.1211 63.2812 70 55 70H15C6.71562 70 0 64.1211 0 56.875V28.4375C0 24.8145 3.35781 21.875 7.5 21.875H17.5V15.3125ZM25 21.875H45V15.3125C45 10.4795 40.5156 6.5625 35 6.5625C29.4844 6.5625 25 10.4795 25 15.3125V21.875ZM21.25 35C23.3281 35 25 33.5371 25 31.7188C25 29.9004 23.3281 28.4375 21.25 28.4375C19.1719 28.4375 17.5 29.9004 17.5 31.7188C17.5 33.5371 19.1719 35 21.25 35ZM48.75 28.4375C46.6719 28.4375 45 29.9004 45 31.7188C45 33.5371 46.6719 35 48.75 35C50.8281 35 52.5 33.5371 52.5 31.7188C52.5 29.9004 50.8281 28.4375 48.75 28.4375Z" fill="#3742FA"/>
<path d="M86.735 62.35C84.2383 62.35 81.9867 61.8133 79.98 60.74C77.9733 59.6433 76.3983 58.1383 75.255 56.225C74.1117 54.2883 73.54 52.13 73.54 49.75C73.54 47.37 74.1117 45.2233 75.255 43.31C76.3983 41.3733 77.9733 39.8683 79.98 38.795C81.9867 37.6983 84.2383 37.15 86.735 37.15C89.2317 37.15 91.4833 37.6983 93.49 38.795C95.4967 39.8683 97.0717 41.3617 98.215 43.275C99.3583 45.1883 99.93 47.3467 99.93 49.75C99.93 52.1533 99.3583 54.3117 98.215 56.225C97.0717 58.1383 95.4967 59.6433 93.49 60.74C91.4833 61.8133 89.2317 62.35 86.735 62.35ZM86.735 58.36C88.3683 58.36 89.8383 57.9983 91.145 57.275C92.4517 56.5283 93.4783 55.5017 94.225 54.195C94.9717 52.865 95.345 51.3833 95.345 49.75C95.345 48.1167 94.9717 46.6467 94.225 45.34C93.4783 44.01 92.4517 42.9833 91.145 42.26C89.8383 41.5133 88.3683 41.14 86.735 41.14C85.1017 41.14 83.6317 41.5133 82.325 42.26C81.0183 42.9833 79.9917 44.01 79.245 45.34C78.4983 46.6467 78.125 48.1167 78.125 49.75C78.125 51.3833 78.4983 52.865 79.245 54.195C79.9917 55.5017 81.0183 56.5283 82.325 57.275C83.6317 57.9983 85.1017 58.36 86.735 58.36ZM114.833 37.5C116.956 37.5 118.8 37.85 120.363 38.55C121.95 39.25 123.163 40.2533 124.003 41.56C124.843 42.8667 125.263 44.4183 125.263 46.215C125.263 47.9883 124.843 49.54 124.003 50.87C123.163 52.1767 121.95 53.18 120.363 53.88C118.8 54.58 116.956 54.93 114.833 54.93H109.303V62H104.753V37.5H114.833ZM114.623 51.08C116.606 51.08 118.111 50.66 119.138 49.82C120.165 48.98 120.678 47.7783 120.678 46.215C120.678 44.6517 120.165 43.45 119.138 42.61C118.111 41.77 116.606 41.35 114.623 41.35H109.303V51.08H114.623ZM148.182 58.185V62H129.807V37.5H147.692V41.315H134.357V47.685H146.187V51.43H134.357V58.185H148.182ZM175.024 37.5V62H171.279L157.769 45.41V62H153.254V37.5H156.999L170.509 54.09V37.5H175.024ZM199.964 58.185V62H181.589V37.5H199.474V41.315H186.139V47.685H197.969V51.43H186.139V58.185H199.964ZM210.006 41.35H201.886V37.5H222.676V41.35H214.556V62H210.006V41.35Z" fill="#5352ED"/>
<path d="M29.815 62.28C27.9717 62.28 26.1867 62 24.46 61.44C22.7567 60.8567 21.415 60.11 20.435 59.2L21.73 56.47C22.6633 57.31 23.8533 57.9983 25.3 58.535C26.77 59.0483 28.275 59.305 29.815 59.305C31.845 59.305 33.3617 58.9667 34.365 58.29C35.3683 57.59 35.87 56.6683 35.87 55.525C35.87 54.685 35.59 54.0083 35.03 53.495C34.4933 52.9583 33.8167 52.55 33 52.27C32.2067 51.99 31.075 51.675 29.605 51.325C27.7617 50.8817 26.2683 50.4383 25.125 49.995C24.005 49.5517 23.0367 48.875 22.22 47.965C21.4267 47.0317 21.03 45.7833 21.03 44.22C21.03 42.9133 21.3683 41.735 22.045 40.685C22.745 39.635 23.795 38.795 25.195 38.165C26.595 37.535 28.3333 37.22 30.41 37.22C31.8567 37.22 33.28 37.4067 34.68 37.78C36.08 38.1533 37.2817 38.69 38.285 39.39L37.13 42.19C36.1033 41.5367 35.0067 41.0467 33.84 40.72C32.6733 40.37 31.53 40.195 30.41 40.195C28.4267 40.195 26.9333 40.5567 25.93 41.28C24.95 42.0033 24.46 42.9367 24.46 44.08C24.46 44.92 24.74 45.6083 25.3 46.145C25.86 46.6583 26.5483 47.0667 27.365 47.37C28.205 47.65 29.3367 47.9533 30.76 48.28C32.6033 48.7233 34.085 49.1667 35.205 49.61C36.325 50.0533 37.2817 50.73 38.075 51.64C38.8917 52.55 39.3 53.775 39.3 55.315C39.3 56.5983 38.95 57.7767 38.25 58.85C37.55 59.9 36.4883 60.74 35.065 61.37C33.6417 61.9767 31.8917 62.28 29.815 62.28ZM65.4833 37.5V62H61.9833V51.08H47.9133V62H44.4133V37.5H47.9133V48.035H61.9833V37.5H65.4833Z" fill="#F6F9FF"/>
</svg>
