<svg width="70" height="70" viewBox="0 0 70 70" fill="none" xmlns="http://www.w3.org/2000/svg">
<path d="M5.41543 26.9062L10.2266 13.1646C12.0682 7.89961 17.0352 4.375 22.6133 4.375H47.3867C52.9648 4.375 57.9277 7.89961 59.7734 13.1646L64.5859 26.9062C67.7578 28.2188 70 31.3496 70 35V61.25C70 63.6699 68.0449 65.625 65.625 65.625H61.25C58.8301 65.625 56.875 63.6699 56.875 61.25V54.6875H13.125V61.25C13.125 63.6699 11.1658 65.625 8.75 65.625H4.375C1.95918 65.625 0 63.6699 0 61.25V35C0 31.3496 2.23672 28.2188 5.41543 26.9062ZM14.916 26.25H55.084L51.5156 16.0508C50.9004 14.3008 49.2461 13.125 47.3867 13.125H22.6133C20.7539 13.125 19.0996 14.3008 18.4844 16.0508L14.916 26.25ZM13.125 35C10.7092 35 8.75 36.9551 8.75 39.375C8.75 41.7949 10.7092 43.75 13.125 43.75C15.5449 43.75 17.5 41.7949 17.5 39.375C17.5 36.9551 15.5449 35 13.125 35ZM56.875 43.75C59.2949 43.75 61.25 41.7949 61.25 39.375C61.25 36.9551 59.2949 35 56.875 35C54.4551 35 52.5 36.9551 52.5 39.375C52.5 41.7949 54.4551 43.75 56.875 43.75Z" fill="#70A1FF"/>
</svg>
