<svg width="217" height="70" viewBox="0 0 217 70" fill="none" xmlns="http://www.w3.org/2000/svg">
<path d="M68.76 51L63.96 44.25C63.42 44.31 62.86 44.34 62.28 44.34H56.64V51H54.42V30H62.28C64.96 30 67.06 30.64 68.58 31.92C70.1 33.2 70.86 34.96 70.86 37.2C70.86 38.84 70.44 40.23 69.6 41.37C68.78 42.49 67.6 43.3 66.06 43.8L71.19 51H68.76ZM62.22 42.45C64.3 42.45 65.89 41.99 66.99 41.07C68.09 40.15 68.64 38.86 68.64 37.2C68.64 35.5 68.09 34.2 66.99 33.3C65.89 32.38 64.3 31.92 62.22 31.92H56.64V42.45H62.22ZM89.3897 43.77H76.1897C76.3097 45.41 76.9397 46.74 78.0797 47.76C79.2197 48.76 80.6597 49.26 82.3997 49.26C83.3797 49.26 84.2797 49.09 85.0997 48.75C85.9197 48.39 86.6297 47.87 87.2297 47.19L88.4297 48.57C87.7297 49.41 86.8497 50.05 85.7897 50.49C84.7497 50.93 83.5997 51.15 82.3397 51.15C80.7197 51.15 79.2797 50.81 78.0197 50.13C76.7797 49.43 75.8097 48.47 75.1097 47.25C74.4097 46.03 74.0597 44.65 74.0597 43.11C74.0597 41.57 74.3897 40.19 75.0497 38.97C75.7297 37.75 76.6497 36.8 77.8097 36.12C78.9897 35.44 80.3097 35.1 81.7697 35.1C83.2297 35.1 84.5397 35.44 85.6997 36.12C86.8597 36.8 87.7697 37.75 88.4297 38.97C89.0897 40.17 89.4197 41.55 89.4197 43.11L89.3897 43.77ZM81.7697 36.93C80.2497 36.93 78.9697 37.42 77.9297 38.4C76.9097 39.36 76.3297 40.62 76.1897 42.18H87.3797C87.2397 40.62 86.6497 39.36 85.6097 38.4C84.5897 37.42 83.3097 36.93 81.7697 36.93ZM100.295 51.15C98.7352 51.15 97.3352 50.81 96.0952 50.13C94.8752 49.45 93.9152 48.5 93.2152 47.28C92.5152 46.04 92.1652 44.65 92.1652 43.11C92.1652 41.57 92.5152 40.19 93.2152 38.97C93.9152 37.75 94.8752 36.8 96.0952 36.12C97.3352 35.44 98.7352 35.1 100.295 35.1C101.655 35.1 102.865 35.37 103.925 35.91C105.005 36.43 105.855 37.2 106.475 38.22L104.885 39.3C104.365 38.52 103.705 37.94 102.905 37.56C102.105 37.16 101.235 36.96 100.295 36.96C99.1552 36.96 98.1252 37.22 97.2052 37.74C96.3052 38.24 95.5952 38.96 95.0752 39.9C94.5752 40.84 94.3252 41.91 94.3252 43.11C94.3252 44.33 94.5752 45.41 95.0752 46.35C95.5952 47.27 96.3052 47.99 97.2052 48.51C98.1252 49.01 99.1552 49.26 100.295 49.26C101.235 49.26 102.105 49.07 102.905 48.69C103.705 48.31 104.365 47.73 104.885 46.95L106.475 48.03C105.855 49.05 105.005 49.83 103.925 50.37C102.845 50.89 101.635 51.15 100.295 51.15ZM116.846 51.15C115.326 51.15 113.956 50.81 112.736 50.13C111.516 49.43 110.556 48.47 109.856 47.25C109.156 46.03 108.806 44.65 108.806 43.11C108.806 41.57 109.156 40.19 109.856 38.97C110.556 37.75 111.516 36.8 112.736 36.12C113.956 35.44 115.326 35.1 116.846 35.1C118.366 35.1 119.736 35.44 120.956 36.12C122.176 36.8 123.126 37.75 123.806 38.97C124.506 40.19 124.856 41.57 124.856 43.11C124.856 44.65 124.506 46.03 123.806 47.25C123.126 48.47 122.176 49.43 120.956 50.13C119.736 50.81 118.366 51.15 116.846 51.15ZM116.846 49.26C117.966 49.26 118.966 49.01 119.846 48.51C120.746 47.99 121.446 47.26 121.946 46.32C122.446 45.38 122.696 44.31 122.696 43.11C122.696 41.91 122.446 40.84 121.946 39.9C121.446 38.96 120.746 38.24 119.846 37.74C118.966 37.22 117.966 36.96 116.846 36.96C115.726 36.96 114.716 37.22 113.816 37.74C112.936 38.24 112.236 38.96 111.716 39.9C111.216 40.84 110.966 41.91 110.966 43.11C110.966 44.31 111.216 45.38 111.716 46.32C112.236 47.26 112.936 47.99 113.816 48.51C114.716 49.01 115.726 49.26 116.846 49.26ZM148.884 35.1C150.864 35.1 152.414 35.67 153.534 36.81C154.674 37.95 155.244 39.63 155.244 41.85V51H153.114V42.06C153.114 40.42 152.714 39.17 151.914 38.31C151.134 37.45 150.024 37.02 148.584 37.02C146.944 37.02 145.654 37.53 144.714 38.55C143.774 39.55 143.304 40.94 143.304 42.72V51H141.174V42.06C141.174 40.42 140.774 39.17 139.974 38.31C139.194 37.45 138.074 37.02 136.614 37.02C134.994 37.02 133.704 37.53 132.744 38.55C131.804 39.55 131.334 40.94 131.334 42.72V51H129.204V35.22H131.244V38.1C131.804 37.14 132.584 36.4 133.584 35.88C134.584 35.36 135.734 35.1 137.034 35.1C138.354 35.1 139.494 35.38 140.454 35.94C141.434 36.5 142.164 37.33 142.644 38.43C143.224 37.39 144.054 36.58 145.134 36C146.234 35.4 147.484 35.1 148.884 35.1ZM166.541 35.1C168.601 35.1 170.181 35.62 171.281 36.66C172.381 37.68 172.931 39.2 172.931 41.22V51H170.891V48.54C170.411 49.36 169.701 50 168.761 50.46C167.841 50.92 166.741 51.15 165.461 51.15C163.701 51.15 162.301 50.73 161.261 49.89C160.221 49.05 159.701 47.94 159.701 46.56C159.701 45.22 160.181 44.14 161.141 43.32C162.121 42.5 163.671 42.09 165.791 42.09H170.801V41.13C170.801 39.77 170.421 38.74 169.661 38.04C168.901 37.32 167.791 36.96 166.331 36.96C165.331 36.96 164.371 37.13 163.451 37.47C162.531 37.79 161.741 38.24 161.081 38.82L160.121 37.23C160.921 36.55 161.881 36.03 163.001 35.67C164.121 35.29 165.301 35.1 166.541 35.1ZM165.791 49.47C166.991 49.47 168.021 49.2 168.881 48.66C169.741 48.1 170.381 47.3 170.801 46.26V43.68H165.851C163.151 43.68 161.801 44.62 161.801 46.5C161.801 47.42 162.151 48.15 162.851 48.69C163.551 49.21 164.531 49.47 165.791 49.47ZM186.756 35.1C188.736 35.1 190.306 35.68 191.466 36.84C192.646 37.98 193.236 39.65 193.236 41.85V51H191.106V42.06C191.106 40.42 190.696 39.17 189.876 38.31C189.056 37.45 187.886 37.02 186.366 37.02C184.666 37.02 183.316 37.53 182.316 38.55C181.336 39.55 180.846 40.94 180.846 42.72V51H178.716V35.22H180.756V38.13C181.336 37.17 182.136 36.43 183.156 35.91C184.196 35.37 185.396 35.1 186.756 35.1ZM213.477 28.74V51H211.437V47.88C210.797 48.94 209.947 49.75 208.887 50.31C207.847 50.87 206.667 51.15 205.347 51.15C203.867 51.15 202.527 50.81 201.327 50.13C200.127 49.45 199.187 48.5 198.507 47.28C197.827 46.06 197.487 44.67 197.487 43.11C197.487 41.55 197.827 40.16 198.507 38.94C199.187 37.72 200.127 36.78 201.327 36.12C202.527 35.44 203.867 35.1 205.347 35.1C206.627 35.1 207.777 35.37 208.797 35.91C209.837 36.43 210.687 37.2 211.347 38.22V28.74H213.477ZM205.527 49.26C206.627 49.26 207.617 49.01 208.497 48.51C209.397 47.99 210.097 47.26 210.597 46.32C211.117 45.38 211.377 44.31 211.377 43.11C211.377 41.91 211.117 40.84 210.597 39.9C210.097 38.96 209.397 38.24 208.497 37.74C207.617 37.22 206.627 36.96 205.527 36.96C204.407 36.96 203.397 37.22 202.497 37.74C201.617 38.24 200.917 38.96 200.397 39.9C199.897 40.84 199.647 41.91 199.647 43.11C199.647 44.31 199.897 45.38 200.397 46.32C200.917 47.26 201.617 47.99 202.497 48.51C203.397 49.01 204.407 49.26 205.527 49.26Z" fill="#70A1FF"/>
<path d="M45.5078 31.2773C46.3867 29.8125 46.875 28.25 46.875 26.3945C46.875 22.0977 43.1641 18.0938 38.4766 18.0938H34.8633C35.3516 16.8242 35.7422 15.3594 35.7422 13.5039C35.7422 6.375 32.0312 3.25 26.4648 3.25C20.4102 3.25 20.8008 12.5273 19.4336 13.8945C17.1875 16.1406 14.5508 20.4375 12.6953 22H3.125C1.36719 22 0 23.4648 0 25.125V48.5625C0 50.3203 1.36719 51.6875 3.125 51.6875H9.375C10.7422 51.6875 12.0117 50.7109 12.3047 49.4414C16.6992 49.5391 19.7266 53.25 29.6875 53.25C30.4688 53.25 31.25 53.25 31.9336 53.25C39.4531 53.25 42.7734 49.4414 42.8711 43.9727C44.2383 42.2148 44.9219 39.7734 44.6289 37.4297C45.6055 35.6719 45.8984 33.5234 45.5078 31.2773ZM39.4531 36.5508C40.7227 38.6016 39.5508 41.3359 38.0859 42.2148C38.8672 46.9023 36.3281 48.5625 32.9102 48.5625H29.1992C22.2656 48.5625 17.6758 44.9492 12.5 44.9492V26.6875H13.4766C16.3086 26.6875 20.1172 19.8516 22.7539 17.2148C25.4883 14.4805 24.6094 9.79297 26.4648 7.9375C31.0547 7.9375 31.0547 11.1602 31.0547 13.5039C31.0547 17.3125 28.3203 19.0703 28.3203 22.7812H38.4766C40.5273 22.7812 42.0898 24.6367 42.1875 26.4922C42.1875 28.25 40.918 30.1055 39.9414 30.1055C41.3086 31.5703 41.6016 34.5977 39.4531 36.5508ZM8.59375 45.4375C8.59375 46.8047 7.51953 47.7812 6.25 47.7812C4.88281 47.7812 3.90625 46.8047 3.90625 45.4375C3.90625 44.168 4.88281 43.0938 6.25 43.0938C7.51953 43.0938 8.59375 44.168 8.59375 45.4375Z" fill="#5352ED"/>
</svg>
