<svg width="838" height="760" viewBox="0 0 838 760" fill="none" xmlns="http://www.w3.org/2000/svg">
<g clip-path="url(#clip0_21_997)">
<path d="M160.426 654.891C164.742 619.646 186.249 584.92 219.346 573.45C206.293 609.727 206.296 649.523 219.354 685.798C224.439 699.769 231.528 714.771 226.744 728.851C223.768 737.613 216.487 744.316 208.348 748.508C200.208 752.699 191.175 754.697 182.255 756.654L180.499 758.129C166.338 725.655 156.11 690.136 160.426 654.891Z" fill="#2ED573"/>
<path d="M219.674 574.117C200.4 596.049 188.421 623.592 185.438 652.833C184.685 659.116 184.913 665.481 186.112 671.692C187.473 677.704 190.394 683.237 194.572 687.715C198.385 691.97 202.771 695.873 205.499 700.995C206.857 703.638 207.65 706.543 207.825 709.519C208.001 712.495 207.555 715.474 206.517 718.263C204.108 725.279 199.36 730.999 194.526 736.427C189.159 742.455 183.49 748.63 181.208 756.621C180.932 757.589 179.469 757.097 179.745 756.13C183.714 742.227 197.003 734.33 203.341 721.807C206.298 715.964 207.54 709.18 204.767 703.012C202.343 697.618 197.824 693.589 193.926 689.314C189.788 685.007 186.75 679.735 185.08 673.961C183.573 667.831 183.104 661.487 183.694 655.198C184.798 641.018 188.091 627.102 193.452 613.961C199.488 598.929 208.012 585.056 218.654 572.943C219.313 572.194 220.329 573.372 219.674 574.117L219.674 574.117Z" fill="white"/>
<path d="M185.853 643.36C181.09 642.186 176.893 639.33 174.012 635.304C171.131 631.277 169.753 626.342 170.125 621.378C170.142 621.176 170.235 620.988 170.386 620.855C170.536 620.721 170.732 620.652 170.932 620.662C171.131 620.673 171.319 620.761 171.456 620.909C171.593 621.057 171.667 621.254 171.664 621.456C171.31 626.078 172.594 630.675 175.285 634.419C177.975 638.163 181.894 640.807 186.336 641.874C187.301 642.107 186.812 643.592 185.853 643.36Z" fill="white"/>
<path d="M192.359 685.816C200.961 680.6 207.311 672.282 210.143 662.522C210.423 661.555 211.886 662.047 211.607 663.013C208.641 673.164 202.015 681.806 193.052 687.214C192.198 687.729 191.509 686.328 192.359 685.816Z" fill="white"/>
<path d="M200.918 600.412C202.667 601.256 204.596 601.646 206.531 601.546C208.465 601.446 210.345 600.86 212.001 599.84C212.849 599.315 213.537 600.716 212.695 601.238C210.859 602.356 208.783 603.001 206.645 603.116C204.508 603.231 202.376 602.813 200.435 601.898C200.245 601.827 200.088 601.686 199.997 601.502C199.906 601.319 199.887 601.107 199.944 600.909C200.009 600.713 200.148 600.55 200.33 600.457C200.513 600.364 200.724 600.348 200.918 600.412Z" fill="white"/>
<path d="M320.229 636.402C319.709 636.745 319.189 637.089 318.668 637.445C311.698 642.1 305.111 647.323 298.974 653.061C298.492 653.497 298.011 653.946 297.543 654.395C282.901 668.38 270.944 685.004 262.278 703.422C258.836 710.754 255.948 718.341 253.64 726.118C250.453 736.859 247.838 748.762 241.529 757.547C240.881 758.471 240.177 759.354 239.422 760.19H182.406C182.277 760.124 182.147 760.071 182.016 760.005L179.74 760.11C179.831 759.701 179.935 759.278 180.027 758.868C180.079 758.631 180.143 758.393 180.195 758.155C180.234 757.996 180.274 757.838 180.3 757.693C180.312 757.64 180.326 757.587 180.338 757.547C180.364 757.402 180.404 757.27 180.43 757.138C181.002 754.773 181.592 752.408 182.199 750.043C182.199 750.03 182.199 750.03 182.212 750.017C186.667 731.953 193.217 714.489 201.724 697.992C201.984 697.503 202.244 697.001 202.531 696.512C206.47 689.209 210.99 682.246 216.046 675.691C218.826 672.111 221.783 668.676 224.905 665.4C232.988 656.95 242.329 649.843 252.586 644.341C273.036 633.376 296.71 629.175 318.564 635.873C319.123 636.045 319.67 636.217 320.229 636.402Z" fill="#2ED573"/>
<path d="M320.101 637.137C291.71 642.863 265.817 657.53 246.1 679.053C241.775 683.61 238.183 688.831 235.459 694.523C232.981 700.156 232.033 706.359 232.715 712.49C233.237 718.218 234.424 724.017 233.566 729.775C233.084 732.715 231.995 735.519 230.371 738.002C228.747 740.486 226.624 742.592 224.142 744.184C218.059 748.313 210.878 749.977 203.8 751.356C195.941 752.887 187.754 754.35 181.195 759.336C180.4 759.94 179.524 758.652 180.317 758.049C191.729 749.375 207.021 751.195 219.505 745.072C225.331 742.215 230.343 737.557 231.786 730.937C233.048 725.148 231.829 719.168 231.251 713.372C230.5 707.402 231.2 701.335 233.289 695.703C235.72 689.888 239.107 684.536 243.306 679.875C252.594 669.228 263.473 660.131 275.543 652.916C289.274 644.605 304.304 638.74 319.983 635.576C320.953 635.38 321.065 636.942 320.101 637.137H320.101Z" fill="white"/>
<path d="M252.047 671.743C248.941 667.893 247.283 663.047 247.369 658.071C247.456 653.094 249.282 648.311 252.521 644.575C253.179 643.821 254.363 644.824 253.704 645.579C250.681 649.052 248.981 653.508 248.91 658.142C248.838 662.777 250.4 667.284 253.314 670.852C253.946 671.628 252.676 672.515 252.047 671.743Z" fill="white"/>
<path d="M232.073 709.62C242.034 710.715 252.035 707.957 260.082 701.896C260.879 701.295 261.755 702.582 260.959 703.183C252.574 709.474 242.161 712.323 231.798 711.161C230.81 711.049 231.091 709.509 232.073 709.62Z" fill="white"/>
<path d="M289.537 646.663C290.433 648.407 291.742 649.897 293.346 651.001C294.95 652.104 296.798 652.785 298.726 652.984C299.714 653.083 299.432 654.622 298.45 654.524C296.322 654.295 294.281 653.54 292.507 652.325C290.732 651.11 289.278 649.472 288.27 647.554C288.16 647.382 288.119 647.173 288.155 646.971C288.192 646.768 288.302 646.588 288.465 646.465C288.633 646.348 288.84 646.303 289.041 646.34C289.242 646.377 289.42 646.493 289.537 646.663L289.537 646.663Z" fill="white"/>
<path d="M210.418 148.647H21.7842C15.955 148.641 10.3665 146.286 6.24467 142.1C2.12285 137.913 -0.195652 132.238 -0.202148 126.317V21.9766C-0.195612 16.0566 2.12295 10.381 6.2448 6.195C10.3667 2.00901 15.9552 -0.3455 21.7842 -0.351952H210.418C216.247 -0.345497 221.835 2.00899 225.957 6.19498C230.079 10.381 232.398 16.0566 232.404 21.9766V126.317C232.398 132.237 230.079 137.913 225.957 142.099C221.836 146.286 216.247 148.641 210.418 148.647V148.647Z" fill="#E6E6E6"/>
<path d="M498.406 148.647H309.773C303.944 148.641 298.355 146.286 294.233 142.1C290.112 137.913 287.793 132.238 287.787 126.317V21.9766C287.793 16.0566 290.112 10.381 294.234 6.195C298.355 2.00901 303.944 -0.3455 309.773 -0.351952H498.406C504.236 -0.345504 509.824 2.00899 513.946 6.19498C518.068 10.381 520.386 16.0566 520.393 21.9766V126.317C520.386 132.237 518.068 137.913 513.946 142.099C509.824 146.286 504.236 148.641 498.406 148.647Z" fill="#FFA502"/>
<path d="M786.395 148.647H597.762C591.933 148.641 586.344 146.286 582.222 142.1C578.1 137.913 575.782 132.238 575.775 126.317V21.9766C575.782 16.0566 578.1 10.381 582.222 6.195C586.344 2.00901 591.933 -0.3455 597.762 -0.351952H786.395C792.224 -0.345504 797.813 2.00899 801.935 6.19498C806.057 10.381 808.375 16.0566 808.382 21.9766V126.317C808.375 132.237 806.057 137.913 801.935 142.099C797.813 146.286 792.224 148.641 786.395 148.647Z" fill="#E6E6E6"/>
<path d="M210.418 381.131H21.7842C15.955 381.124 10.3665 378.769 6.24467 374.583C2.12285 370.397 -0.195652 364.721 -0.202148 358.801V254.46C-0.195608 248.54 2.12295 242.865 6.2448 238.679C10.3667 234.493 15.9552 232.138 21.7842 232.132H210.418C216.247 232.138 221.835 234.493 225.957 238.679C230.079 242.865 232.398 248.54 232.404 254.46V358.801C232.398 364.721 230.079 370.397 225.957 374.583C221.836 378.769 216.247 381.124 210.418 381.131Z" fill="#F2F2F2"/>
<path d="M223.691 400.699C242.297 400.699 257.381 385.38 257.381 366.483C257.381 347.586 242.297 332.267 223.691 332.267C205.084 332.267 190 347.586 190 366.483C190 385.38 205.084 400.699 223.691 400.699Z" fill="#FFA502"/>
<path d="M237.681 363.61H226.226V351.976C226.226 351.617 226.156 351.261 226.021 350.929C225.885 350.597 225.687 350.295 225.437 350.041C225.186 349.787 224.889 349.585 224.562 349.447C224.235 349.31 223.885 349.239 223.531 349.239C223.177 349.239 222.826 349.31 222.499 349.447C222.172 349.585 221.875 349.787 221.625 350.041C221.374 350.295 221.176 350.597 221.04 350.929C220.905 351.261 220.835 351.617 220.835 351.976V363.61H209.38C209.027 363.61 208.676 363.681 208.349 363.818C208.022 363.956 207.725 364.157 207.475 364.412C207.224 364.666 207.026 364.968 206.89 365.3C206.755 365.632 206.685 365.988 206.685 366.347C206.685 367.073 206.969 367.77 207.475 368.283C207.98 368.796 208.666 369.085 209.38 369.085H220.835V380.718C220.835 381.078 220.905 381.434 221.04 381.766C221.176 382.098 221.374 382.4 221.625 382.654C221.875 382.908 222.172 383.11 222.499 383.247C222.826 383.385 223.177 383.456 223.531 383.456C223.885 383.456 224.235 383.385 224.562 383.247C224.889 383.11 225.186 382.908 225.437 382.654C225.687 382.4 225.885 382.098 226.021 381.766C226.156 381.434 226.226 381.078 226.226 380.718V369.085H237.681C238.035 369.085 238.385 369.014 238.712 368.876C239.039 368.739 239.337 368.537 239.587 368.283C239.837 368.029 240.036 367.727 240.171 367.395C240.307 367.063 240.376 366.707 240.376 366.347C240.376 365.621 240.092 364.925 239.587 364.412C239.081 363.898 238.396 363.61 237.681 363.61Z" fill="white"/>
<path d="M498.406 381.131H309.773C303.944 381.124 298.355 378.769 294.233 374.583C290.112 370.397 287.793 364.721 287.787 358.801V254.46C287.793 248.54 290.112 242.865 294.234 238.679C298.355 234.493 303.944 232.138 309.773 232.132H498.406C504.236 232.138 509.824 234.493 513.946 238.679C518.068 242.865 520.386 248.54 520.393 254.46V358.801C520.386 364.721 518.068 370.397 513.946 374.583C509.824 378.769 504.236 381.124 498.406 381.131Z" fill="#E6E6E6"/>
<path d="M511.726 400.331C530.332 400.331 545.416 385.012 545.416 366.115C545.416 347.218 530.332 331.899 511.726 331.899C493.119 331.899 478.035 347.218 478.035 366.115C478.035 385.012 493.119 400.331 511.726 400.331Z" fill="#FFA502"/>
<path d="M525.716 363.242H514.261V351.608C514.261 351.249 514.191 350.893 514.056 350.561C513.921 350.229 513.722 349.927 513.472 349.673C513.221 349.418 512.924 349.217 512.597 349.079C512.27 348.942 511.92 348.871 511.566 348.871C511.212 348.871 510.861 348.942 510.534 349.079C510.207 349.217 509.91 349.418 509.66 349.673C509.41 349.927 509.211 350.229 509.076 350.561C508.94 350.893 508.87 351.249 508.87 351.608V363.242H497.416C497.062 363.242 496.711 363.312 496.384 363.45C496.057 363.588 495.76 363.789 495.51 364.043C495.259 364.298 495.061 364.599 494.925 364.932C494.79 365.264 494.72 365.62 494.72 365.979C494.72 366.339 494.79 366.695 494.925 367.027C495.061 367.359 495.259 367.661 495.51 367.915C495.76 368.169 496.057 368.371 496.384 368.508C496.711 368.646 497.062 368.717 497.416 368.717H508.87V380.35C508.87 380.709 508.94 381.065 509.076 381.398C509.211 381.73 509.41 382.031 509.66 382.286C509.91 382.54 510.207 382.742 510.534 382.879C510.861 383.017 511.212 383.087 511.566 383.087C512.281 383.087 512.966 382.799 513.472 382.286C513.977 381.772 514.261 381.076 514.261 380.35V368.717H525.716C526.07 368.717 526.42 368.646 526.747 368.508C527.074 368.371 527.371 368.169 527.622 367.915C527.872 367.661 528.071 367.359 528.206 367.027C528.341 366.695 528.411 366.339 528.411 365.979C528.411 365.62 528.341 365.264 528.206 364.931C528.071 364.599 527.872 364.298 527.622 364.043C527.371 363.789 527.074 363.588 526.747 363.45C526.42 363.312 526.07 363.242 525.716 363.242Z" fill="white"/>
<path d="M804.145 173.847C822.752 173.847 837.835 158.528 837.835 139.631C837.835 120.734 822.752 105.415 804.145 105.415C785.538 105.415 770.454 120.734 770.454 139.631C770.454 158.528 785.538 173.847 804.145 173.847Z" fill="#FFA502"/>
<path d="M818.135 136.758H806.68V125.124C806.68 124.765 806.611 124.409 806.475 124.077C806.34 123.745 806.141 123.443 805.891 123.189C805.641 122.934 805.343 122.733 805.016 122.595C804.689 122.458 804.339 122.387 803.985 122.387V122.387C803.631 122.387 803.28 122.458 802.953 122.595C802.626 122.733 802.329 122.934 802.079 123.189C801.829 123.443 801.63 123.745 801.495 124.077C801.359 124.409 801.29 124.765 801.29 125.124V136.758H789.835C789.481 136.758 789.13 136.828 788.803 136.966C788.476 137.104 788.179 137.305 787.929 137.559C787.679 137.814 787.48 138.115 787.345 138.447C787.209 138.78 787.139 139.136 787.139 139.495V139.495C787.139 139.855 787.209 140.211 787.345 140.543C787.48 140.875 787.679 141.177 787.929 141.431C788.179 141.685 788.476 141.887 788.803 142.024C789.13 142.162 789.481 142.233 789.835 142.233H801.29V153.866C801.29 154.225 801.359 154.581 801.495 154.914C801.63 155.246 801.829 155.547 802.079 155.802C802.329 156.056 802.626 156.257 802.953 156.395C803.28 156.533 803.631 156.603 803.985 156.603V156.603C804.7 156.603 805.385 156.315 805.891 155.802C806.396 155.288 806.68 154.592 806.68 153.866V142.232H818.135C818.489 142.232 818.839 142.162 819.166 142.024C819.493 141.886 819.791 141.685 820.041 141.431C820.291 141.176 820.49 140.875 820.625 140.543C820.761 140.21 820.83 139.854 820.83 139.495V139.495C820.83 139.135 820.761 138.78 820.625 138.447C820.49 138.115 820.291 137.814 820.041 137.559C819.791 137.305 819.493 137.103 819.166 136.966C818.839 136.828 818.489 136.758 818.135 136.758V136.758L818.135 136.758Z" fill="white"/>
<path d="M223.737 170.847C242.344 170.847 257.427 155.528 257.427 136.631C257.427 117.734 242.344 102.415 223.737 102.415C205.13 102.415 190.046 117.734 190.046 136.631C190.046 155.528 205.13 170.847 223.737 170.847Z" fill="#FFA502"/>
<path d="M237.727 133.758H226.272V122.124C226.272 121.765 226.203 121.409 226.067 121.077C225.932 120.745 225.733 120.443 225.483 120.189C225.233 119.935 224.935 119.733 224.608 119.595C224.281 119.458 223.931 119.387 223.577 119.387C223.223 119.387 222.872 119.458 222.545 119.595C222.218 119.733 221.921 119.935 221.671 120.189C221.421 120.443 221.222 120.745 221.087 121.077C220.951 121.409 220.882 121.765 220.882 122.124V133.758H209.427C209.073 133.758 208.722 133.829 208.395 133.966C208.068 134.104 207.771 134.305 207.521 134.56C207.271 134.814 207.072 135.116 206.937 135.448C206.801 135.78 206.731 136.136 206.731 136.495C206.731 137.221 207.015 137.918 207.521 138.431C208.026 138.944 208.712 139.233 209.427 139.233H220.881V150.866C220.881 151.226 220.951 151.582 221.087 151.914C221.222 152.246 221.421 152.548 221.671 152.802C221.921 153.056 222.218 153.258 222.545 153.395C222.872 153.533 223.223 153.604 223.577 153.604C223.931 153.604 224.281 153.533 224.608 153.395C224.935 153.258 225.233 153.056 225.483 152.802C225.733 152.548 225.932 152.246 226.067 151.914C226.203 151.582 226.272 151.226 226.272 150.866V139.233H237.727C238.081 139.233 238.432 139.162 238.759 139.024C239.086 138.887 239.383 138.685 239.633 138.431C239.883 138.177 240.082 137.875 240.217 137.543C240.353 137.211 240.423 136.855 240.423 136.495C240.423 135.769 240.139 135.073 239.633 134.56C239.128 134.046 238.442 133.758 237.727 133.758Z" fill="white"/>
<path d="M475.971 89.3645C476.586 91.2528 476.785 93.2549 476.556 95.23C476.326 97.205 475.673 99.1048 474.642 100.796C473.611 102.487 472.228 103.927 470.59 105.017C468.951 106.106 467.098 106.817 465.159 107.1L449.581 215.094L424.027 202.418L449.73 94.6201C449.477 91.2816 450.44 87.9652 452.434 85.2992C454.429 82.6332 457.317 80.8029 460.552 80.1551C463.786 79.5073 467.143 80.087 469.984 81.7843C472.826 83.4817 474.956 86.1787 475.971 89.3645L475.971 89.3645Z" fill="#9E616A"/>
<path d="M289.906 435.24C291.044 433.621 291.818 431.769 292.175 429.813C292.531 427.858 292.461 425.847 291.969 423.922C291.477 421.997 290.576 420.204 289.329 418.671C288.081 417.138 286.518 415.902 284.749 415.049L295.259 300.177L273.246 311.636L266.373 422.33C265.159 425.443 265.111 428.9 266.239 432.046C267.367 435.193 269.593 437.809 272.493 439.401C275.394 440.992 278.769 441.447 281.978 440.68C285.187 439.914 288.008 437.978 289.906 435.24H289.906Z" fill="#9E616A"/>
<path d="M304.944 377.141L399.406 373.451L404.856 273.826H295.862L304.944 377.141Z" fill="#9E616A"/>
<path d="M287.413 728.972L303.555 728.971L311.233 665.74H287.41L287.413 728.972Z" fill="#9E616A"/>
<path d="M283.408 720.885L308.925 719.338V730.441L333.185 747.457C334.383 748.297 335.286 749.505 335.761 750.903C336.236 752.301 336.258 753.816 335.825 755.228C335.391 756.64 334.525 757.874 333.352 758.751C332.179 759.627 330.761 760.1 329.305 760.1H298.926L293.69 749.117L291.645 760.1H280.191L283.408 720.885Z" fill="#2F2E41"/>
<path d="M359.209 728.972L375.351 728.971L383.029 665.74H359.206L359.209 728.972Z" fill="#9E616A"/>
<path d="M303.634 353.754C303.634 353.754 275.37 376.928 290.692 459.689C288.359 459.971 291.001 464.642 291.001 464.642L293.211 532.077L294.92 539.805L289.24 552.276L291.581 565.827L284.363 688.805L311.031 692.308L336.551 564.601L341.411 550.244L346.286 537.658L343.657 524.238L345.813 503.407L360.526 433.169L364.127 554.987L359.102 566.617L361.898 579.384L355.667 586.161L353.205 700.137L381.641 701.488L405.169 586.592L403.345 571.929L406.475 561.088V535.766L411.836 523.814L423.524 458.648C423.524 458.648 427.05 407.714 401.324 347.777L303.634 353.754Z" fill="#5352ED"/>
<path d="M315.153 191.029C315.153 191.029 279.454 198.199 273.303 229.118C267.152 260.037 263.195 330.005 263.195 330.005L264.542 339.749L299.074 347.881L321.114 249.844L315.153 191.029Z" fill="#3F3D56"/>
<path d="M396.621 201.465C396.621 201.465 400.24 196.316 420.504 195.521C421.338 195.489 420.305 193.808 420.305 193.808L430.05 145.432L462.528 163.694L457.045 214.41L403.678 276.056L396.621 201.465Z" fill="#3F3D56"/>
<path d="M376.377 345.682C361.088 345.683 338.073 343.969 303.427 338.745C301.195 338.404 299.13 337.346 297.532 335.727C295.934 334.108 294.888 332.013 294.545 329.748C293.414 328.534 292.678 326.997 292.437 325.344C292.196 323.69 292.462 322.002 293.2 320.508L293.232 320.444L292.447 319.504C291.233 318.056 290.519 316.243 290.416 314.344C290.313 312.444 290.826 310.563 291.875 308.988L281.146 231.031C280.057 223.29 281.723 215.408 285.846 208.803C289.969 202.198 296.276 197.304 303.635 195.002L307.596 193.749L322.575 173.851L322.87 173.854L370.958 174.504L386.564 194.63L411.79 200.671L411.855 201.061L417.713 235.43C420.758 253.305 413.772 260.337 404.855 276.056L407.472 320.205L408.66 322.396C409.319 323.609 409.54 325.017 409.284 326.378C409.028 327.739 408.312 328.966 407.26 329.847C408.056 332.156 408.11 334.662 407.415 337.005L406.798 339.076C406.799 339.135 406.635 339.977 405.302 341.004C402.901 342.857 396.006 345.682 376.377 345.682Z" fill="#3F3D56"/>
<path d="M355.205 720.885L380.722 719.338V730.441L404.982 747.457C406.18 748.297 407.082 749.505 407.557 750.903C408.032 752.301 408.055 753.816 407.621 755.228C407.188 756.64 406.321 757.874 405.148 758.751C403.975 759.627 402.557 760.1 401.101 760.1H370.722L365.486 749.117L363.442 760.1H351.988L355.205 720.885Z" fill="#2F2E41"/>
<path d="M382.005 130.488C385.34 109.616 371.383 89.9496 350.831 86.5626C330.279 83.1755 310.915 97.3502 307.58 118.223C304.245 139.095 318.202 158.761 338.754 162.148C359.306 165.535 378.67 151.361 382.005 130.488Z" fill="#9E616A"/>
<path d="M366.837 86.9439C353.02 77.2928 340.852 75.8227 330.857 78.56C329.561 76.5246 327.744 74.886 325.601 73.8202C317.805 53.8715 294.082 41.8912 273.723 47.715C253.232 53.5764 239.094 76.628 242.949 97.8905C245.339 111.07 253.506 122.483 256.791 135.462C263.15 160.587 247.638 189.368 223.371 197.468C246.347 202.153 271.639 187.9 279.881 165.62C283.885 154.798 284.126 142.983 284.635 131.434C284.769 123.462 285.731 115.527 287.504 107.761C288.384 104.277 289.628 100.898 291.214 97.6812C294.668 90.6112 300.405 84.9583 307.468 81.6656C306.836 83.6522 306.677 85.763 307.007 87.824C307.336 89.8849 308.143 91.8367 309.361 93.5185C303.973 100.374 301.04 107.787 301.04 112.227C289.846 133.005 305.853 150.852 326.312 162.22C334.472 166.778 343.894 168.446 353.092 166.961L353.948 163.25L355.107 166.593L358.978 177.799C363.444 179.993 367.871 182.398 372.26 185.014C370.593 177.063 369.244 169.126 368.316 161.365C367.031 150.803 371.51 135.079 374.741 125.516C376.745 119.623 377.773 113.433 377.784 107.199V106.926L380.93 117.189L392.385 112.227C390.254 99.8138 392.385 85.7216 366.837 86.9439Z" fill="#2F2E41"/>
<path d="M726.797 350.947H608.629C604.978 350.942 601.477 349.467 598.895 346.845C596.312 344.222 594.86 340.667 594.856 336.958V271.595C594.86 267.886 596.313 264.331 598.895 261.708C601.477 259.086 604.978 257.611 608.629 257.607H726.797C730.449 257.611 733.95 259.086 736.532 261.708C739.114 264.331 740.567 267.886 740.571 271.595V336.958C740.567 340.667 739.114 344.222 736.532 346.845C733.95 349.467 730.449 350.942 726.797 350.947V350.947Z" fill="#F2F2F2"/>
<path d="M728.539 324.396C738.42 324.396 746.43 316.261 746.43 306.226C746.43 296.19 738.42 288.055 728.539 288.055C718.657 288.055 710.647 296.19 710.647 306.226C710.647 316.261 718.657 324.396 728.539 324.396Z" fill="#FFA502"/>
<path d="M735.968 304.7H729.885V298.522C729.885 298.331 729.848 298.142 729.776 297.966C729.704 297.789 729.599 297.629 729.466 297.494C729.333 297.359 729.175 297.252 729.001 297.179C728.828 297.106 728.642 297.068 728.454 297.068C728.074 297.068 727.71 297.221 727.441 297.494C727.173 297.767 727.022 298.136 727.022 298.522V304.7H720.939C720.559 304.7 720.195 304.853 719.927 305.126C719.658 305.398 719.508 305.768 719.508 306.154V306.154C719.508 306.345 719.545 306.534 719.617 306.71C719.688 306.886 719.794 307.047 719.927 307.182C720.06 307.317 720.218 307.424 720.391 307.497C720.565 307.57 720.751 307.607 720.939 307.607H727.022V313.785C727.022 313.976 727.059 314.165 727.131 314.342C727.203 314.518 727.308 314.678 727.441 314.813C727.574 314.948 727.732 315.055 727.906 315.128C728.079 315.201 728.266 315.239 728.454 315.239V315.239C728.833 315.239 729.197 315.086 729.466 314.813C729.734 314.541 729.885 314.171 729.885 313.785V307.607H735.968C736.348 307.607 736.712 307.454 736.98 307.182C737.249 306.909 737.4 306.539 737.4 306.154V306.154C737.4 305.963 737.363 305.774 737.291 305.597C737.219 305.421 737.113 305.261 736.98 305.126C736.847 304.991 736.69 304.884 736.516 304.811C736.342 304.738 736.156 304.7 735.968 304.7L735.968 304.7Z" fill="white"/>
<path d="M774.94 332.398H677.558C673.425 332.393 669.463 330.723 666.54 327.755C663.618 324.787 661.973 320.763 661.969 316.565V257.53C661.97 256.757 662.274 256.017 662.812 255.471C663.351 254.926 664.08 254.619 664.841 254.619C665.602 254.619 666.331 254.926 666.87 255.471C667.408 256.017 667.711 256.757 667.713 257.53V273.34L780.827 283.783C783.087 283.824 785.24 284.763 786.825 286.399C788.409 288.035 789.298 290.238 789.301 292.533C789.301 292.713 789.284 292.893 789.252 293.07L783.551 323.945C783.473 326.212 782.531 328.36 780.925 329.936C779.319 331.513 777.174 332.395 774.94 332.398V332.398ZM667.713 279.198V316.565C667.716 319.216 668.755 321.757 670.6 323.632C672.446 325.506 674.948 326.561 677.559 326.564H774.94C775.702 326.563 776.432 326.255 776.97 325.708C777.509 325.162 777.812 324.42 777.812 323.647C777.812 323.466 777.829 323.287 777.861 323.109L783.548 292.308C783.492 291.575 783.165 290.892 782.635 290.393C782.104 289.894 781.408 289.617 780.684 289.616C780.598 289.616 780.511 289.612 780.425 289.603L667.713 279.198Z" fill="#FFA502"/>
<path d="M651.682 359.622C654.326 359.622 656.469 357.446 656.469 354.761C656.469 352.076 654.326 349.899 651.682 349.899C649.038 349.899 646.895 352.076 646.895 354.761C646.895 357.446 649.038 359.622 651.682 359.622Z" fill="#FFA502"/>
<path d="M771.111 359.622C773.754 359.622 775.898 357.446 775.898 354.761C775.898 352.076 773.754 349.899 771.111 349.899C768.467 349.899 766.324 352.076 766.324 354.761C766.324 357.446 768.467 359.622 771.111 359.622Z" fill="#FFA502"/>
<path d="M775.898 349.899H647.853C647.091 349.899 646.36 349.592 645.822 349.045C645.283 348.498 644.98 347.756 644.98 346.982C644.98 346.209 645.283 345.467 645.822 344.92C646.36 344.373 647.091 344.065 647.853 344.065H775.898C776.659 344.065 777.39 344.373 777.929 344.92C778.467 345.467 778.77 346.209 778.77 346.982C778.77 347.756 778.467 348.498 777.929 349.045C777.39 349.592 776.659 349.899 775.898 349.899V349.899Z" fill="#FFA502"/>
<path d="M672.5 259.474H647.608C646.848 259.472 646.119 259.164 645.582 258.617C645.044 258.071 644.743 257.33 644.743 256.557C644.743 255.785 645.044 255.044 645.582 254.497C646.119 253.95 646.848 253.642 647.608 253.64H672.5C673.261 253.642 673.99 253.95 674.527 254.497C675.064 255.044 675.366 255.785 675.366 256.557C675.366 257.33 675.064 258.071 674.527 258.617C673.99 259.164 673.261 259.472 672.5 259.474V259.474Z" fill="#FFA502"/>
<path d="M692.469 348.414C691.783 348.415 691.119 348.165 690.599 347.71L671.721 331.233C671.434 330.984 671.198 330.68 671.027 330.338C670.856 329.996 670.753 329.623 670.724 329.24C670.695 328.858 670.741 328.473 670.858 328.109C670.976 327.744 671.163 327.407 671.409 327.116C671.655 326.825 671.956 326.586 672.293 326.414C672.63 326.241 672.997 326.137 673.374 326.108C673.75 326.08 674.129 326.127 674.488 326.247C674.846 326.367 675.178 326.558 675.464 326.809L694.342 343.285C694.787 343.673 695.104 344.19 695.251 344.767C695.398 345.344 695.367 345.953 695.163 346.511C694.959 347.07 694.592 347.552 694.11 347.892C693.628 348.232 693.056 348.414 692.469 348.414V348.414Z" fill="#FFA502"/>
<path d="M696.447 330.606C696.07 330.606 695.696 330.53 695.348 330.384C695 330.237 694.683 330.022 694.416 329.752C694.15 329.481 693.938 329.159 693.794 328.805C693.649 328.451 693.575 328.072 693.575 327.689V280.865C693.575 280.091 693.878 279.349 694.416 278.802C694.955 278.255 695.685 277.948 696.447 277.948C697.209 277.948 697.939 278.255 698.478 278.802C699.017 279.349 699.319 280.091 699.319 280.865V327.689C699.319 328.072 699.245 328.451 699.101 328.805C698.956 329.159 698.745 329.48 698.478 329.751C698.211 330.022 697.895 330.237 697.546 330.384C697.198 330.53 696.825 330.606 696.447 330.606H696.447Z" fill="#FFA502"/>
<path d="M757.119 330.606C756.742 330.606 756.368 330.53 756.02 330.384C755.671 330.237 755.355 330.022 755.088 329.752C754.821 329.481 754.61 329.159 754.465 328.805C754.321 328.451 754.247 328.072 754.247 327.689V284.754C754.248 283.982 754.552 283.242 755.09 282.696C755.629 282.15 756.358 281.844 757.119 281.844C757.879 281.844 758.609 282.15 759.147 282.696C759.686 283.242 759.989 283.982 759.991 284.754V327.689C759.991 328.072 759.917 328.451 759.772 328.805C759.628 329.159 759.416 329.481 759.15 329.751C758.883 330.022 758.566 330.237 758.218 330.384C757.87 330.53 757.496 330.606 757.119 330.606H757.119Z" fill="#FFA502"/>
</g>
<defs>
<clipPath id="clip0_21_997">
<rect width="1186" height="887" fill="white" transform="translate(-175 -125)"/>
</clipPath>
</defs>
</svg>
