<svg width="70" height="72" viewBox="0 0 70 72" fill="none" xmlns="http://www.w3.org/2000/svg">
<rect width="1512" height="1072" transform="translate(-821 -321)" fill="#A3B7DE"/>
<g filter="url(#filter0_i_21_941)">
<rect x="-791" y="-291" width="1451" height="431" rx="30" fill="#DFE4EA"/>
</g>
<g filter="url(#filter1_i_21_941)">
<rect x="-789" y="-291" width="1451" height="441" rx="30" fill="#DFE4EA"/>
</g>
<path d="M24.2555 29.9075L28.4739 41.88H41.6905L45.7472 29.9101L35.0616 22.5066L24.2555 29.9075ZM34.9384 -0.0368042C15.6955 -0.0368042 0 14.9747 0 33.4966C0 52.0186 15.6955 67.0301 35.0616 67.0301C54.4277 67.0301 70 52.0186 70 33.6145C70 15.2104 54.4277 -0.0368042 34.9384 -0.0368042ZM59.6048 47.2637L45.3747 47.057L41.1741 60.0931C39.1978 60.5068 37.1571 60.7426 35.0616 60.7426C32.9661 60.7426 30.9268 60.5103 28.9587 60.0968L24.7623 47.0672L10.5226 47.2637C8.47778 43.9431 7.12736 40.1889 6.71511 36.1662L18.3937 28.3094L13.7918 15.4331C16.5105 12.5068 19.8619 10.1346 23.6584 8.54042L35.0616 16.7299L46.469 8.54697C50.2655 10.1411 53.6169 12.512 56.3355 15.4397L51.7296 28.3094L63.4027 36.1649C62.8781 40.1902 61.6455 43.9496 59.6048 47.2637Z" fill="#70A1FF"/>
<defs>
<filter id="filter0_i_21_941" x="-791" y="-291" width="1451" height="431" filterUnits="userSpaceOnUse" color-interpolation-filters="sRGB">
<feFlood flood-opacity="0" result="BackgroundImageFix"/>
<feBlend mode="normal" in="SourceGraphic" in2="BackgroundImageFix" result="shape"/>
<feColorMatrix in="SourceAlpha" type="matrix" values="0 0 0 0 0 0 0 0 0 0 0 0 0 0 0 0 0 0 127 0" result="hardAlpha"/>
<feMorphology radius="6" operator="erode" in="SourceAlpha" result="effect1_innerShadow_21_941"/>
<feOffset/>
<feGaussianBlur stdDeviation="4"/>
<feComposite in2="hardAlpha" operator="arithmetic" k2="-1" k3="1"/>
<feColorMatrix type="matrix" values="0 0 0 0 0.247059 0 0 0 0 0.239216 0 0 0 0 0.337255 0 0 0 0.28 0"/>
<feBlend mode="normal" in2="shape" result="effect1_innerShadow_21_941"/>
</filter>
<filter id="filter1_i_21_941" x="-789" y="-291" width="1451" height="441" filterUnits="userSpaceOnUse" color-interpolation-filters="sRGB">
<feFlood flood-opacity="0" result="BackgroundImageFix"/>
<feBlend mode="normal" in="SourceGraphic" in2="BackgroundImageFix" result="shape"/>
<feColorMatrix in="SourceAlpha" type="matrix" values="0 0 0 0 0 0 0 0 0 0 0 0 0 0 0 0 0 0 127 0" result="hardAlpha"/>
<feMorphology radius="6" operator="erode" in="SourceAlpha" result="effect1_innerShadow_21_941"/>
<feOffset/>
<feGaussianBlur stdDeviation="4"/>
<feComposite in2="hardAlpha" operator="arithmetic" k2="-1" k3="1"/>
<feColorMatrix type="matrix" values="0 0 0 0 0.247059 0 0 0 0 0.239216 0 0 0 0 0.337255 0 0 0 0.28 0"/>
<feBlend mode="normal" in2="shape" result="effect1_innerShadow_21_941"/>
</filter>
</defs>
</svg>
