<svg width="223" height="71" viewBox="0 0 223 71" fill="none" xmlns="http://www.w3.org/2000/svg">
<path d="M86.735 62.28C84.2617 62.28 82.0333 61.7433 80.05 60.67C78.0667 59.5733 76.5033 58.0683 75.36 56.155C74.24 54.2417 73.68 52.1067 73.68 49.75C73.68 47.3933 74.24 45.2583 75.36 43.345C76.5033 41.4317 78.0667 39.9383 80.05 38.865C82.0333 37.7683 84.2617 37.22 86.735 37.22C89.185 37.22 91.4017 37.7683 93.385 38.865C95.3683 39.9383 96.92 41.4317 98.04 43.345C99.16 45.235 99.72 47.37 99.72 49.75C99.72 52.13 99.16 54.2767 98.04 56.19C96.92 58.08 95.3683 59.5733 93.385 60.67C91.4017 61.7433 89.185 62.28 86.735 62.28ZM86.735 59.165C88.5317 59.165 90.1417 58.7567 91.565 57.94C93.0117 57.1233 94.1433 56.0033 94.96 54.58C95.8 53.1333 96.22 51.5233 96.22 49.75C96.22 47.9767 95.8 46.3783 94.96 44.955C94.1433 43.5083 93.0117 42.3767 91.565 41.56C90.1417 40.7433 88.5317 40.335 86.735 40.335C84.9383 40.335 83.305 40.7433 81.835 41.56C80.3883 42.3767 79.245 43.5083 78.405 44.955C77.5883 46.3783 77.18 47.9767 77.18 49.75C77.18 51.5233 77.5883 53.1333 78.405 54.58C79.245 56.0033 80.3883 57.1233 81.835 57.94C83.305 58.7567 84.9383 59.165 86.735 59.165ZM114.625 37.5C117.798 37.5 120.295 38.2583 122.115 39.775C123.935 41.2917 124.845 43.38 124.845 46.04C124.845 48.7 123.935 50.7883 122.115 52.305C120.295 53.8217 117.798 54.58 114.625 54.58H108.57V62H105.07V37.5H114.625ZM114.52 51.535C116.736 51.535 118.428 51.0683 119.595 50.135C120.761 49.1783 121.345 47.8133 121.345 46.04C121.345 44.2667 120.761 42.9133 119.595 41.98C118.428 41.0233 116.736 40.545 114.52 40.545H108.57V51.535H114.52ZM147.767 58.955V62H129.987V37.5H147.277V40.545H133.487V48.07H145.772V51.045H133.487V58.955H147.767ZM174.504 37.5V62H171.634L156.934 43.73V62H153.434V37.5H156.304L171.004 55.77V37.5H174.504ZM199.617 58.955V62H181.837V37.5H199.127V40.545H185.337V48.07H197.622V51.045H185.337V58.955H199.617ZM210.149 40.545H201.749V37.5H222.014V40.545H213.614V62H210.149V40.545Z" fill="#F6F9FF"/>
<g clip-path="url(#clip0_161_9)">
<path d="M17.5 15.3125C17.5 6.85508 25.3281 0 35 0C44.6719 0 52.5 6.85508 52.5 15.3125V21.875H62.5C66.6406 21.875 70 24.8145 70 28.4375V56.875C70 64.1211 63.2812 70 55 70H15C6.71562 70 0 64.1211 0 56.875V28.4375C0 24.8145 3.35781 21.875 7.5 21.875H17.5V15.3125ZM25 21.875H45V15.3125C45 10.4795 40.5156 6.5625 35 6.5625C29.4844 6.5625 25 10.4795 25 15.3125V21.875ZM21.25 35C23.3281 35 25 33.5371 25 31.7188C25 29.9004 23.3281 28.4375 21.25 28.4375C19.1719 28.4375 17.5 29.9004 17.5 31.7188C17.5 33.5371 19.1719 35 21.25 35ZM48.75 28.4375C46.6719 28.4375 45 29.9004 45 31.7188C45 33.5371 46.6719 35 48.75 35C50.8281 35 52.5 33.5371 52.5 31.7188C52.5 29.9004 50.8281 28.4375 48.75 28.4375Z" fill="#F6F9FF"/>
<path d="M30.885 61.35C28.995 61.35 27.1633 61.0817 25.39 60.545C23.64 60.0083 22.2517 59.2967 21.225 58.41L22.8 54.875C23.8033 55.6683 25.0283 56.3217 26.475 56.835C27.945 57.325 29.415 57.57 30.885 57.57C32.705 57.57 34.0583 57.2783 34.945 56.695C35.855 56.1117 36.31 55.3417 36.31 54.385C36.31 53.685 36.0533 53.1133 35.54 52.67C35.05 52.2033 34.42 51.8417 33.65 51.585C32.88 51.3283 31.83 51.0367 30.5 50.71C28.6333 50.2667 27.1167 49.8233 25.95 49.38C24.8067 48.9367 23.815 48.2483 22.975 47.315C22.1583 46.3583 21.75 45.075 21.75 43.465C21.75 42.1117 22.1117 40.8867 22.835 39.79C23.5817 38.67 24.69 37.7833 26.16 37.13C27.6533 36.4767 29.4733 36.15 31.62 36.15C33.1133 36.15 34.5833 36.3367 36.03 36.71C37.4767 37.0833 38.725 37.62 39.775 38.32L38.34 41.855C37.2667 41.225 36.1467 40.7467 34.98 40.42C33.8133 40.0933 32.6817 39.93 31.585 39.93C29.7883 39.93 28.4467 40.2333 27.56 40.84C26.6967 41.4467 26.265 42.2517 26.265 43.255C26.265 43.955 26.51 44.5267 27 44.97C27.5133 45.4133 28.155 45.7633 28.925 46.02C29.695 46.2767 30.745 46.5683 32.075 46.895C33.895 47.315 35.3883 47.7583 36.555 48.225C37.7217 48.6683 38.7133 49.3567 39.53 50.29C40.37 51.2233 40.79 52.4833 40.79 54.07C40.79 55.4233 40.4167 56.6483 39.67 57.745C38.9467 58.8417 37.8383 59.7167 36.345 60.37C34.8517 61.0233 33.0317 61.35 30.885 61.35ZM67.0717 36.5V61H62.5217V50.5H49.8517V61H45.3017V36.5H49.8517V46.615H62.5217V36.5H67.0717Z" fill="#5352ED"/>
</g>
<defs>
<clipPath id="clip0_161_9">
<rect width="70" height="70" fill="white"/>
</clipPath>
</defs>
</svg>
